<?xml version="1.0" standalone="no"?>
<!DOCTYPE svg PUBLIC "-//W3C//DTD SVG 1.1//EN" "http://www.w3.org/Graphics/SVG/1.1/DTD/svg11.dtd" >
<svg xmlns="http://www.w3.org/2000/svg" xmlns:xlink="http://www.w3.org/1999/xlink" version="1.1">
<metadata>
Created by FontForge 20161116 at Mon Apr 30 14:33:25 2007
 By Jimmy Warting
Copyright 1990 as an unpublished work by Bitstream Inc.  All rights reserved.  Confidential.
</metadata>
<defs>
<font id="FuturaBT-Book" horiz-adv-x="500" >
  <font-face 
    font-family="Futura"
    font-weight="500"
    font-stretch="normal"
    units-per-em="1000"
    panose-1="0 0 0 0 0 0 0 0 0 0"
    ascent="800"
    descent="-200"
    x-height="447"
    cap-height="715"
    bbox="-167 -236 1100 963"
    underline-thickness="57"
    underline-position="-109"
    stemh="72"
    stemv="75"
    unicode-range="U+0020-FB02"
  />
<missing-glyph horiz-adv-x="295" 
 />
    <glyph glyph-name=".notdef" horiz-adv-x="295" 
 />
    <glyph glyph-name="space" unicode=" " horiz-adv-x="295" 
 />
    <glyph glyph-name="exclam" unicode="!" horiz-adv-x="319" 
d="M121 162v569h78v-569h-78zM102 39c0 32 26 58 58 58s58 -26 58 -58s-25 -58 -58 -58s-58 26 -58 58z" />
    <glyph glyph-name="quotedbl" unicode="&#x22;" horiz-adv-x="288" 
d="M103 700v-270h-57v270h57zM242 700v-270h-58v270h58z" />
    <glyph glyph-name="numbersign" unicode="#" horiz-adv-x="769" 
d="M450 711l-81 -230h127l82 230h70l-80 -230h150l-21 -60h-152l-46 -133h161l-21 -60h-162l-81 -229h-71l82 229h-129l-82 -229h-70l81 229h-156l21 60h156l47 133h-167l21 60h168l82 230h71zM475 421h-129l-46 -133h128z" />
    <glyph glyph-name="dollar" unicode="$" horiz-adv-x="590" 
d="M300 56c77 15 115 59 115 136c0 69 -35 109 -115 142v-278zM261 661c-58 -11 -92 -50 -92 -98c0 -57 28 -90 92 -117v215zM300 428c136 -47 199 -117 199 -231c0 -121 -75 -203 -199 -215v-73h-39v72c-110 5 -179 64 -199 168l72 44c18 -84 59 -129 127 -137v295
c-120 46 -177 109 -177 203c0 99 63 167 177 180v48h39v-48c80 -6 136 -42 169 -108l-73 -46c-21 51 -54 76 -96 80v-232z" />
    <glyph glyph-name="percent" unicode="%" horiz-adv-x="740" 
d="M133 -19l411 741h60l-410 -741h-61zM322 537c0 -118 -56 -184 -147 -184s-147 66 -147 184s56 185 147 185s147 -67 147 -185zM175 402c47 0 75 47 75 135c0 90 -26 136 -75 136c-47 0 -75 -48 -75 -136s28 -135 75 -135zM570 31c47 0 75 47 75 135c0 90 -26 135 -75 135
c-47 0 -75 -47 -75 -135s28 -135 75 -135zM716 166c0 -118 -55 -185 -146 -185s-147 67 -147 185s56 185 147 185s146 -67 146 -185z" />
    <glyph glyph-name="ampersand" unicode="&#x26;" horiz-adv-x="669" 
d="M540 0l-69 83c-63 -64 -135 -96 -217 -96c-128 0 -212 84 -212 202c0 86 55 158 164 220l-29 33c-31 36 -46 73 -46 119c0 88 66 150 164 150c100 0 162 -61 162 -150c0 -72 -42 -126 -130 -179l156 -188c27 30 55 67 85 111l52 -57c-27 -41 -57 -78 -91 -111l114 -137
h-103zM281 438l31 18c44 27 67 62 67 103c0 50 -34 81 -84 81s-84 -35 -84 -83c0 -23 8 -46 26 -67zM424 141l-173 209l-21 -14c-64 -44 -103 -82 -103 -144c0 -75 55 -132 131 -132c56 0 108 28 166 81z" />
    <glyph glyph-name="quoteright" unicode="&#x2019;" horiz-adv-x="295" 
d="M59 466l93 265l83 -29l-120 -259z" />
    <glyph glyph-name="parenleft" unicode="(" horiz-adv-x="288" 
d="M249 -192l-52 -27c-77 143 -116 304 -116 483c0 185 36 344 116 485l52 -24c-72 -142 -103 -290 -103 -461c0 -176 31 -324 103 -456z" />
    <glyph glyph-name="parenright" unicode=")" horiz-adv-x="288" 
d="M39 -192c72 132 103 280 103 456c0 171 -31 319 -103 461l52 24c80 -141 116 -300 116 -485c0 -179 -39 -340 -116 -483z" />
    <glyph glyph-name="asterisk" unicode="*" horiz-adv-x="414" 
d="M74 439l-24 43l109 63l-109 63l25 43l110 -64l-1 128h50l-1 -125l107 61l24 -44l-107 -62l107 -61l-24 -44l-106 61v-122h-50v124z" />
    <glyph glyph-name="plus" unicode="+" horiz-adv-x="833" 
d="M446 596v-269h263v-57h-263v-270h-58v270h-264v57h264v269h58z" />
    <glyph glyph-name="comma" unicode="," horiz-adv-x="295" 
d="M59 -142l93 266l83 -29l-120 -259z" />
    <glyph glyph-name="hyphen" unicode="-" horiz-adv-x="366" 
d="M69 261h228v-77h-228v77z" />
    <glyph glyph-name="period" unicode="." horiz-adv-x="295" 
d="M89 48c0 32 26 58 58 58c33 0 59 -26 59 -58s-26 -57 -59 -57s-58 25 -58 57z" />
    <glyph glyph-name="slash" unicode="/" horiz-adv-x="417" 
d="M350 731h67l-351 -824h-66z" />
    <glyph glyph-name="zero" unicode="0" horiz-adv-x="590" 
d="M295 51c104 0 160 102 160 300c0 199 -56 302 -160 302c-99 0 -160 -107 -160 -300c0 -194 61 -302 160 -302zM296 -19c-151 0 -249 135 -249 371s98 370 247 370c153 0 249 -132 249 -370s-97 -371 -247 -371z" />
    <glyph glyph-name="one" unicode="1" horiz-adv-x="590" 
d="M273 0v634h-146l48 74h181v-708h-83z" />
    <glyph glyph-name="two" unicode="2" horiz-adv-x="590" 
d="M487 81v-81h-431l151 179c128 153 218 247 218 340c0 72 -55 125 -141 125c-90 0 -140 -52 -140 -147v-8h-80c0 6 -1 13 -1 19c0 135 83 214 224 214c140 0 222 -75 222 -198c0 -103 -66 -197 -181 -322l-112 -121h271z" />
    <glyph glyph-name="three" unicode="3" horiz-adv-x="590" 
d="M55 181h87v-8c0 -73 51 -119 133 -119c95 0 148 51 148 138c0 92 -53 140 -156 140c-8 0 -16 0 -25 -1v70c8 0 15 -1 23 -1c99 0 149 44 149 128c0 74 -48 122 -127 122c-83 0 -131 -42 -135 -119h-84c6 122 83 191 221 191c133 0 214 -74 214 -190
c0 -85 -47 -146 -127 -167c85 -14 136 -79 136 -176c0 -128 -88 -208 -240 -208c-133 0 -217 74 -217 187v13z" />
    <glyph glyph-name="four" unicode="4" horiz-adv-x="590" 
d="M357 223v314l-209 -314h209zM357 0v154h-335l383 568h36v-499h84v-69h-84v-154h-84z" />
    <glyph glyph-name="five" unicode="5" horiz-adv-x="590" 
d="M104 357l-16 3l85 348h314v-73h-256l-45 -184c34 18 71 26 111 26c140 0 227 -90 227 -233c0 -161 -99 -263 -263 -263c-97 0 -166 33 -215 105l60 70c32 -66 87 -101 157 -101c102 0 171 70 171 181c0 102 -68 172 -178 172c-56 0 -108 -17 -152 -51z" />
    <glyph glyph-name="six" unicode="6" horiz-adv-x="590" 
d="M203 404c35 23 70 34 110 34c128 0 216 -90 216 -221c0 -143 -96 -236 -252 -236c-131 0 -219 94 -219 234c0 103 60 186 139 298l163 230l74 -39zM146 208c0 -97 58 -156 148 -156c88 0 147 62 147 157c0 97 -57 158 -152 158c-85 0 -143 -65 -143 -159z" />
    <glyph glyph-name="seven" unicode="7" horiz-adv-x="590" 
d="M113 9l305 625h-331v74h453l-357 -735z" />
    <glyph glyph-name="eight" unicode="8" horiz-adv-x="590" 
d="M202 378c-80 25 -121 80 -121 165c0 102 84 179 215 179c133 0 214 -75 214 -186c0 -77 -44 -135 -121 -158c94 -27 147 -96 147 -188c0 -128 -87 -209 -240 -209c-152 0 -241 83 -241 207c0 94 53 164 147 190zM295 50c96 0 150 55 150 144c0 91 -56 147 -150 147
s-150 -57 -150 -147c0 -89 54 -144 150 -144zM296 657c-79 0 -127 -46 -127 -119c0 -71 45 -116 125 -116c82 0 128 44 128 116c0 74 -48 119 -126 119z" />
    <glyph glyph-name="nine" unicode="9" horiz-adv-x="590" 
d="M382 300c-35 -23 -70 -34 -110 -34c-128 0 -216 90 -216 221c0 143 95 235 251 235c131 0 219 -94 219 -234c0 -103 -59 -185 -138 -297l-163 -230l-74 38zM439 495c0 97 -58 157 -148 157c-88 0 -147 -62 -147 -157c0 -97 56 -158 151 -158c85 0 144 64 144 158z" />
    <glyph glyph-name="colon" unicode=":" horiz-adv-x="319" 
d="M102 49c0 32 26 57 58 57s58 -25 58 -57s-25 -58 -58 -58s-58 26 -58 58zM102 377c0 32 26 58 58 58s58 -26 58 -58s-25 -58 -58 -58s-58 26 -58 58z" />
    <glyph glyph-name="semicolon" unicode=";" horiz-adv-x="319" 
d="M64 -142l93 266l83 -29l-121 -259zM139 377c0 32 26 58 58 58s58 -26 58 -58s-25 -58 -58 -58s-58 26 -58 58z" />
    <glyph glyph-name="less" unicode="&#x3c;" horiz-adv-x="833" 
d="M704 497l-488 -199l488 -198v-63l-575 236v50l575 236v-62z" />
    <glyph glyph-name="equal" unicode="=" horiz-adv-x="833" 
d="M709 420v-57h-585v57h585zM709 233v-57h-585v57h585z" />
    <glyph glyph-name="greater" unicode="&#x3e;" horiz-adv-x="833" 
d="M704 323v-50l-575 -236v63l488 198l-488 199v62z" />
    <glyph glyph-name="question" unicode="?" horiz-adv-x="521" 
d="M191 39c0 32 26 58 58 58s58 -26 58 -58s-25 -58 -58 -58s-58 26 -58 58zM332 325h75v-16c0 -100 -55 -155 -150 -155c-91 0 -144 55 -144 143c0 71 43 111 119 164c67 46 114 71 114 123c0 44 -33 74 -86 74c-58 0 -91 -37 -91 -104h-79v13c0 99 67 164 169 164
c108 0 172 -60 172 -156c0 -69 -45 -111 -129 -167c-65 -43 -109 -64 -109 -121c0 -36 27 -62 65 -62c49 0 74 32 74 96v4z" />
    <glyph glyph-name="at" unicode="@" horiz-adv-x="1000" 
d="M587 231l29 118c-11 59 -49 93 -101 93c-96 0 -167 -98 -167 -224c0 -72 35 -112 96 -112c65 0 124 49 143 125zM631 412l28 59h54l-69 -277c-4 -16 -6 -29 -6 -39c0 -29 18 -44 54 -44c26 0 65 14 99 43c56 48 93 130 93 220c0 170 -135 288 -349 288
c-109 0 -204 -34 -279 -100c-92 -80 -138 -186 -138 -311c0 -112 38 -196 121 -261c64 -51 157 -82 261 -82c111 0 220 32 308 92l22 -32c-96 -72 -205 -108 -322 -108c-124 0 -227 30 -305 90c-99 76 -148 176 -148 305c0 107 34 203 98 282c94 114 228 175 392 175
c110 0 208 -31 273 -82c84 -65 128 -152 128 -250c0 -112 -43 -204 -120 -266c-45 -36 -98 -55 -152 -55c-64 0 -97 25 -97 76c0 3 1 7 1 11c-33 -57 -84 -87 -145 -87c-100 0 -153 57 -153 162c0 153 104 268 229 268c59 0 100 -26 122 -77z" />
    <glyph glyph-name="A" unicode="A" horiz-adv-x="625" 
d="M312 743l325 -743h-92l-93 219h-279l-93 -219h-92zM312 555l-114 -263h228z" />
    <glyph glyph-name="B" unicode="B" horiz-adv-x="562" 
d="M169 641v-239h66c115 0 165 28 165 115c0 103 -52 124 -165 124h-66zM169 335v-261h66c68 0 115 2 146 24c29 21 47 60 47 105c0 52 -20 91 -59 113c-30 18 -65 19 -109 19h-25h-66zM86 0v715h149c78 0 135 -3 180 -36s72 -88 72 -152c0 -76 -38 -128 -106 -148
c84 -13 137 -80 137 -176c0 -59 -23 -113 -59 -149c-52 -51 -122 -54 -224 -54h-149z" />
    <glyph glyph-name="C" unicode="C" horiz-adv-x="725" 
d="M666 544c-69 75 -145 109 -238 109c-75 0 -151 -32 -204 -87c-55 -57 -82 -127 -82 -211c0 -66 16 -122 49 -169c57 -81 144 -127 241 -127c90 0 169 37 234 113v-113c-71 -51 -154 -78 -241 -78c-76 0 -149 23 -211 66c-104 72 -161 180 -161 307c0 111 37 200 112 273
c73 70 161 105 266 105c85 0 161 -26 235 -77v-111z" />
    <glyph glyph-name="D" unicode="D" horiz-adv-x="725" 
d="M86 0v715h137c134 0 237 0 324 -67c82 -63 125 -163 125 -291s-43 -227 -125 -290c-83 -64 -177 -67 -293 -67h-31h-137zM172 80h54c122 0 207 1 267 51c58 48 90 126 90 227s-31 177 -90 226c-59 50 -144 52 -267 52h-54v-556z" />
    <glyph glyph-name="E" unicode="E" horiz-adv-x="521" 
d="M86 0v715h377v-78h-292v-205h292v-79h-292v-274h292v-79h-377z" />
    <glyph glyph-name="F" unicode="F" horiz-adv-x="507" 
d="M86 0v715h377v-78h-292v-205h292v-79h-292v-353h-85z" />
    <glyph glyph-name="G" unicode="G" horiz-adv-x="814" 
d="M479 369h295v-24c0 -228 -139 -364 -357 -364c-71 0 -132 16 -180 42c-117 64 -184 182 -184 327c0 119 38 215 115 288c65 62 151 93 254 93c136 0 237 -49 304 -150l-71 -57c-52 87 -129 130 -230 130c-166 0 -280 -123 -280 -304c0 -171 117 -292 280 -292
c142 0 248 95 258 235h-204v76z" />
    <glyph glyph-name="H" unicode="H" horiz-adv-x="722" 
d="M86 0v715h85v-275h380v275h86v-715h-86v359h-380v-359h-85z" />
    <glyph glyph-name="I" unicode="I" horiz-adv-x="259" 
d="M87 0v715h85v-715h-85z" />
    <glyph glyph-name="J" unicode="J" horiz-adv-x="387" 
d="M222 715h86v-558c0 -118 -51 -176 -162 -176c-59 0 -105 23 -146 71l56 56c33 -34 61 -51 96 -51c61 0 70 50 70 142v516z" />
    <glyph glyph-name="K" unicode="K" horiz-adv-x="591" 
d="M86 0v715h84v-318l300 318h102l-307 -322l337 -393h-110l-322 385v-385h-84z" />
    <glyph glyph-name="L" unicode="L" horiz-adv-x="456" 
d="M86 0v715h85v-634h270v-81h-355z" />
    <glyph glyph-name="M" unicode="M" horiz-adv-x="838" 
d="M419 -28l-222 514l-90 -486h-83l145 743l250 -591l250 591l145 -743h-83l-91 486z" />
    <glyph glyph-name="N" unicode="N" horiz-adv-x="775" 
d="M86 0v743l523 -571v543h81v-743l-523 565v-537h-81z" />
    <glyph glyph-name="O" unicode="O" horiz-adv-x="870" 
d="M817 356c0 -102 -39 -195 -111 -265c-73 -71 -171 -110 -271 -110c-101 0 -198 40 -270 110c-73 71 -112 163 -112 265s39 195 112 266c72 70 169 109 270 109s199 -39 271 -109c73 -71 111 -164 111 -266zM435 61c78 0 150 30 207 87c56 56 86 128 86 208
s-30 154 -86 210s-128 86 -207 86s-152 -30 -207 -86c-56 -57 -86 -130 -86 -210s30 -151 86 -208c57 -57 128 -87 207 -87z" />
    <glyph glyph-name="P" unicode="P" horiz-adv-x="508" 
d="M169 398h43c123 0 185 16 185 115c0 104 -61 124 -185 124h-43v-239zM169 321v-321h-83v715h126h24c73 0 132 -2 180 -36c45 -32 73 -91 73 -161s-28 -129 -73 -161c-48 -34 -106 -36 -180 -36h-24h-43z" />
    <glyph glyph-name="Q" unicode="Q" horiz-adv-x="870" 
d="M826 -69h-105l-95 102c-57 -33 -124 -49 -203 -49c-81 0 -155 24 -217 70c-100 74 -153 179 -153 303c0 100 40 194 112 265c73 71 168 109 270 109s192 -34 264 -99c77 -70 119 -167 119 -276c0 -114 -44 -211 -128 -278zM525 255l106 -114c60 48 95 124 95 212
c0 59 -14 113 -40 156c-54 89 -145 140 -251 140c-78 0 -152 -30 -207 -85s-85 -129 -85 -207c0 -101 41 -182 122 -241c46 -33 102 -51 163 -51c53 0 98 10 138 32l-146 158h105z" />
    <glyph glyph-name="R" unicode="R" horiz-adv-x="535" 
d="M169 643v-239h65c112 0 167 16 167 115c0 104 -54 124 -167 124h-65zM86 0v715h146h22c68 0 120 -2 164 -36c41 -32 67 -89 67 -159c0 -117 -67 -179 -193 -179h-15l273 -341h-108l-261 341h-12v-341h-83z" />
    <glyph glyph-name="S" unicode="S" horiz-adv-x="514" 
d="M346 397c94 -40 141 -106 141 -196c0 -131 -91 -219 -229 -219c-113 0 -192 60 -219 166l77 38c21 -87 70 -132 142 -132c86 0 143 55 143 133c0 64 -37 111 -111 143l-87 37c-95 40 -141 102 -141 189c0 100 82 176 201 176c86 0 150 -37 185 -108l-70 -45
c-31 54 -70 82 -121 82c-64 0 -109 -43 -109 -104c0 -51 31 -87 96 -115z" />
    <glyph glyph-name="T" unicode="T" horiz-adv-x="507" 
d="M211 0v634h-202v81h489v-81h-201v-634h-86z" />
    <glyph glyph-name="U" unicode="U" horiz-adv-x="720" 
d="M83 715h86v-445c0 -143 58 -210 191 -210s191 67 191 210v445h86v-445c0 -193 -91 -289 -277 -289s-277 96 -277 289v445z" />
    <glyph glyph-name="V" unicode="V" horiz-adv-x="580" 
d="M290 -28l-302 743h92l210 -547l209 547h92z" />
    <glyph glyph-name="W" unicode="W" horiz-adv-x="913" 
d="M-7 715h92l181 -526l189 554l191 -554l182 526h92l-277 -743l-187 553l-186 -553z" />
    <glyph glyph-name="X" unicode="X" horiz-adv-x="529" 
d="M-6 0l220 380l-205 335h102l153 -272l148 272h97l-203 -343l228 -372h-100l-176 308l-167 -308h-97z" />
    <glyph glyph-name="Y" unicode="Y" horiz-adv-x="572" 
d="M243 0v327l-242 388h98l187 -310l186 310h98l-242 -388v-327h-85z" />
    <glyph glyph-name="Z" unicode="Z" horiz-adv-x="566" 
d="M-5 0l402 637h-326v78h470l-398 -634h382v-81h-530z" />
    <glyph glyph-name="bracketleft" unicode="[" horiz-adv-x="288" 
d="M161 -135h89v-66h-158v932h158v-66h-89v-800z" />
    <glyph glyph-name="backslash" unicode="\" horiz-adv-x="417" 
d="M350 -93l-350 824h66l351 -824h-67z" />
    <glyph glyph-name="bracketright" unicode="]" horiz-adv-x="288" 
d="M127 -135v800h-89v66h158v-932h-158v66h89z" />
    <glyph glyph-name="asciicircum" unicode="^" horiz-adv-x="1000" 
d="M539 712l254 -272h-77l-216 214l-216 -214h-78l254 272h79z" />
    <glyph glyph-name="underscore" unicode="_" 
d="M500 -178v-58h-500v58h500z" />
    <glyph glyph-name="quoteleft" unicode="&#x2018;" horiz-adv-x="295" 
d="M235 709l-92 -266l-84 30l121 258z" />
    <glyph glyph-name="a" unicode="a" horiz-adv-x="569" 
d="M494 447v-447h-74v81c-36 -65 -93 -100 -162 -100c-128 0 -214 95 -214 241c0 150 85 241 210 241c75 0 130 -34 164 -100v84h76zM420 219c0 104 -63 168 -149 168c-92 0 -146 -59 -146 -161c0 -108 54 -169 149 -169c90 0 146 59 146 162z" />
    <glyph glyph-name="b" unicode="b" horiz-adv-x="572" 
d="M78 757h76v-394c34 66 89 100 163 100c125 0 211 -91 211 -241c0 -146 -86 -241 -214 -241c-69 0 -128 36 -163 100v-81h-73v757zM151 221c0 -106 58 -166 150 -166c89 0 146 64 146 176c0 99 -55 156 -144 156c-90 0 -152 -65 -152 -166z" />
    <glyph glyph-name="c" unicode="c" horiz-adv-x="449" 
d="M421 106v-89c-41 -24 -92 -36 -150 -36c-139 0 -230 97 -230 238c0 146 99 244 233 244c50 0 98 -11 139 -31v-82c-38 25 -80 39 -124 39c-98 0 -166 -66 -166 -172c0 -90 67 -162 160 -162c48 0 91 17 138 51z" />
    <glyph glyph-name="d" unicode="d" horiz-adv-x="572" 
d="M494 757v-757h-74v81c-35 -64 -93 -100 -162 -100c-128 0 -214 95 -214 241c0 150 86 241 211 241c74 0 129 -34 163 -100v394h76zM420 221c0 101 -61 166 -151 166c-89 0 -144 -57 -144 -156c0 -112 56 -176 145 -176c92 0 150 60 150 166z" />
    <glyph glyph-name="e" unicode="e" horiz-adv-x="514" 
d="M477 212h-354v-7c0 -97 62 -160 148 -160c60 0 108 32 145 97l58 -39c-45 -81 -115 -122 -207 -122c-136 0 -228 98 -228 244c0 141 93 239 223 239c131 0 215 -89 215 -237v-15zM395 274c-5 79 -55 123 -136 123c-73 0 -128 -47 -136 -123h272z" />
    <glyph glyph-name="f" unicode="f" horiz-adv-x="289" 
d="M98 0v384h-86v63h86v129c0 134 22 190 129 190c23 0 45 -3 66 -10v-79c-20 11 -40 16 -60 16c-57 0 -59 -41 -59 -127v-119h119v-63h-117v-384h-78z" />
    <glyph glyph-name="g" unicode="g" horiz-adv-x="571" 
d="M494 447v-439c0 -64 0 -114 -42 -159c-41 -44 -101 -67 -180 -67c-137 0 -215 66 -218 178h86v-6c0 -66 47 -105 133 -105c61 0 105 20 128 59c17 28 19 61 19 102v35v40c-35 -64 -93 -99 -162 -99c-128 0 -214 94 -214 239c0 149 85 238 210 238c74 0 131 -34 164 -99
v83h76zM420 222c0 104 -63 167 -149 167c-92 0 -146 -59 -146 -161c0 -108 54 -169 149 -169c90 0 146 60 146 163z" />
    <glyph glyph-name="h" unicode="h" horiz-adv-x="557" 
d="M78 0v757h75v-379c39 58 93 85 163 85c104 0 168 -58 168 -159v-304h-78v263c0 90 -37 134 -117 134c-45 0 -84 -17 -109 -48c-26 -32 -26 -69 -26 -118v-231h-76z" />
    <glyph glyph-name="i" unicode="i" horiz-adv-x="242" 
d="M82 0v447h77v-447h-77zM64 662c0 31 25 56 56 56s56 -26 56 -57s-25 -55 -56 -55s-56 24 -56 56z" />
    <glyph glyph-name="j" unicode="j" horiz-adv-x="242" 
d="M82 -218v665h77v-665h-77zM64 662c0 31 25 56 56 56s56 -26 56 -57s-25 -55 -56 -55s-56 24 -56 56z" />
    <glyph glyph-name="k" unicode="k" horiz-adv-x="493" 
d="M79 0v757h77v-513l215 203h102l-223 -205l243 -242h-107l-230 236v-236h-77z" />
    <glyph glyph-name="l" unicode="l" horiz-adv-x="242" 
d="M82 0v757h78v-757h-78z" />
    <glyph glyph-name="m" unicode="m" horiz-adv-x="848" 
d="M700 0v263c0 90 -35 134 -111 134c-41 0 -77 -17 -101 -48s-25 -68 -25 -118v-231h-74v263c0 90 -35 134 -111 134c-41 0 -78 -17 -102 -48s-24 -68 -24 -118v-231h-74v447h75v-69c37 57 88 85 155 85c72 0 124 -31 150 -91c39 62 91 91 159 91c99 0 159 -58 159 -159
v-304h-76z" />
    <glyph glyph-name="n" unicode="n" horiz-adv-x="557" 
d="M78 0v447h75v-69c39 58 93 85 163 85c104 0 168 -58 168 -159v-304h-78v263c0 90 -37 134 -117 134c-45 0 -84 -17 -109 -48c-26 -32 -26 -69 -26 -118v-231h-76z" />
    <glyph glyph-name="o" unicode="o" horiz-adv-x="569" 
d="M42 222c0 65 24 125 71 171c46 46 106 70 172 70s125 -25 172 -71c46 -45 71 -105 71 -170s-25 -124 -71 -169c-47 -46 -107 -72 -172 -72c-66 0 -126 25 -172 71c-47 47 -71 105 -71 170zM123 222c0 -95 73 -169 162 -169s161 74 161 169s-72 169 -161 169
c-90 0 -162 -74 -162 -169z" />
    <glyph glyph-name="p" unicode="p" horiz-adv-x="572" 
d="M78 -218v665h73v-84c35 65 94 100 163 100c128 0 214 -94 214 -241c0 -151 -86 -241 -211 -241c-74 0 -129 34 -163 100v-299h-76zM152 222c0 -101 61 -166 151 -166c89 0 144 58 144 157c0 112 -56 176 -145 176c-92 0 -150 -61 -150 -167z" />
    <glyph glyph-name="q" unicode="q" horiz-adv-x="572" 
d="M494 -218h-76v299c-34 -66 -89 -100 -163 -100c-125 0 -211 90 -211 241c0 147 86 241 214 241c69 0 127 -35 162 -100v84h74v-665zM420 222c0 106 -58 167 -150 167c-89 0 -146 -64 -146 -176c0 -99 55 -157 144 -157c90 0 152 65 152 166z" />
    <glyph glyph-name="r" unicode="r" horiz-adv-x="351" 
d="M79 0v447h68v-93c40 76 82 108 150 108c18 0 35 -3 52 -9l-26 -69c-17 6 -33 9 -47 9c-81 0 -121 -58 -121 -175v-218h-76z" />
    <glyph glyph-name="s" unicode="s" horiz-adv-x="407" 
d="M31 75l65 44c25 -48 63 -71 114 -71s84 28 84 67c0 34 -23 52 -70 68c-110 38 -176 57 -176 145c0 78 63 135 158 135c77 0 135 -32 159 -89l-62 -38c-18 41 -55 64 -102 64c-45 0 -76 -28 -76 -67c0 -47 41 -53 115 -77c87 -28 130 -60 130 -133
c0 -83 -64 -142 -163 -142c-83 0 -141 31 -176 94z" />
    <glyph glyph-name="t" unicode="t" horiz-adv-x="259" 
d="M90 384h-82v63h82v180h78v-180h82v-63h-82v-384h-78v384z" />
    <glyph glyph-name="u" unicode="u" horiz-adv-x="547" 
d="M150 447v-220c0 -118 27 -173 125 -173s124 55 124 173v220h78v-261c0 -135 -70 -205 -204 -205c-132 0 -203 70 -203 205v261h80z" />
    <glyph glyph-name="v" unicode="v" horiz-adv-x="449" 
d="M225 -28l-221 475h86l134 -312l135 312h86z" />
    <glyph glyph-name="w" unicode="w" horiz-adv-x="692" 
d="M352 463l134 -321l120 305h86l-199 -475l-147 343l-147 -343l-199 475h85l119 -305l136 321h12z" />
    <glyph glyph-name="x" unicode="x" horiz-adv-x="433" 
d="M0 0l172 231l-167 216h95l116 -160l117 160h95l-168 -216l173 -231h-95l-122 173l-121 -173h-95z" />
    <glyph glyph-name="y" unicode="y" horiz-adv-x="440" 
d="M60 -218l121 262l-175 403h88l130 -321l138 321h84l-300 -665h-86z" />
    <glyph glyph-name="z" unicode="z" horiz-adv-x="431" 
d="M15 0l256 380h-240v67h375l-256 -380h254v-67h-389z" />
    <glyph glyph-name="braceleft" unicode="{" 
d="M419 659c-8 0 -15 1 -22 1c-86 0 -101 -30 -101 -119v-118c0 -96 -16 -142 -97 -164c81 -22 97 -68 97 -164v-118c0 -90 16 -118 104 -118h19v-61h-17c-56 0 -97 5 -128 25c-44 29 -49 77 -49 153v119c0 97 -30 134 -119 134c-7 0 -14 -1 -22 -1v62c8 0 15 -1 22 -1
c89 0 119 37 119 135v119c0 76 4 124 49 153c31 20 71 25 128 25h17v-62z" />
    <glyph glyph-name="bar" unicode="|" 
d="M281 764v-1000h-62v1000h62z" />
    <glyph glyph-name="braceright" unicode="}" 
d="M275 543v-119c0 -98 31 -135 120 -135c7 0 14 1 22 1v-62c-8 0 -15 1 -22 1c-89 0 -120 -37 -120 -135v-118c0 -76 -4 -125 -48 -154c-30 -20 -71 -24 -126 -24h-20v61c8 0 15 -1 22 -1c86 0 101 31 101 120v117c0 96 16 142 97 164c-81 22 -97 68 -97 164v118
c0 90 -16 119 -104 119h-19v61h17c56 0 98 -5 129 -25c44 -29 48 -77 48 -153z" />
    <glyph glyph-name="asciitilde" unicode="~" horiz-adv-x="833" 
d="M747 306c-66 -47 -129 -70 -189 -70c-29 0 -60 6 -93 17c-69 23 -128 50 -190 50c-59 0 -117 -28 -188 -78v65c68 47 131 71 189 71c52 0 97 -16 142 -32c48 -17 91 -36 141 -36c60 0 118 28 188 77v-64z" />
    <glyph glyph-name="exclamdown" unicode="&#xa1;" horiz-adv-x="319" 
d="M121 551h78v-570h-78v570zM102 674c0 32 25 57 58 57s58 -25 58 -57s-26 -58 -58 -58s-58 26 -58 58z" />
    <glyph glyph-name="cent" unicode="&#xa2;" horiz-adv-x="590" 
d="M472 486c-42 27 -87 39 -137 42v-328c60 7 106 21 138 47l-1 -84c-39 -23 -83 -34 -137 -35v-99h-39v101c-130 7 -218 102 -218 229c0 128 82 221 218 237v79h39v-77c45 0 90 -10 137 -29v-83zM296 525c-78 -8 -135 -76 -135 -159c0 -91 51 -154 135 -165v324z" />
    <glyph glyph-name="sterling" unicode="&#xa3;" horiz-adv-x="590" 
d="M42 24c36 57 76 87 122 91c15 29 22 59 22 91c0 26 -8 54 -24 82h-115v57h88c-24 58 -42 106 -42 154c0 129 91 223 232 223c130 0 208 -76 219 -216l-81 -19c-6 109 -57 167 -143 167c-81 0 -140 -60 -140 -147c0 -45 15 -99 44 -162h188v-57h-167c9 -21 13 -42 13 -64
c0 -32 -15 -73 -45 -109h4c79 0 136 -54 190 -54c34 0 61 20 87 61l65 -43c-36 -66 -85 -98 -151 -98c-26 0 -53 6 -80 17c-59 24 -103 45 -140 45s-63 -20 -91 -62z" />
    <glyph glyph-name="fraction" unicode="&#x2044;" horiz-adv-x="167" 
d="M-167 -19l439 741h61l-439 -741h-61z" />
    <glyph glyph-name="yen" unicode="&#xa5;" horiz-adv-x="590" 
d="M253 0v307h-243v60h215l-42 68h-173v60h135l-133 213h92l192 -317l192 317h90l-134 -213h136v-60h-173l-43 -68l216 1v-61h-243v-307h-84z" />
    <glyph glyph-name="florin" unicode="&#x192;" horiz-adv-x="590" 
d="M331 393l-45 -381c-18 -155 -44 -232 -150 -232c-15 0 -33 2 -54 7l16 67c12 -3 22 -5 31 -5c56 0 61 48 74 160l44 384h-79l7 65h78l10 80c15 125 52 184 137 184c24 0 50 -5 76 -16l-8 -69c-22 9 -40 15 -54 15c-45 0 -59 -40 -68 -124l-8 -70h94l-7 -65h-94z" />
    <glyph glyph-name="section" unicode="&#xa7;" horiz-adv-x="525" 
d="M75 -44h83c2 -68 36 -103 101 -103s101 32 101 88c0 62 -44 81 -117 109c-126 49 -189 93 -189 202c0 91 53 160 137 178c-75 29 -111 75 -111 144c0 94 69 158 187 158c111 0 170 -58 170 -163v-10h-77c-2 68 -35 102 -98 102c-59 0 -94 -33 -94 -88
c0 -32 12 -54 39 -73c25 -18 67 -28 114 -48c103 -44 153 -98 153 -193c0 -90 -46 -148 -137 -173c68 -21 104 -73 104 -148c0 -97 -66 -159 -184 -159c-111 0 -182 66 -182 167v10zM263 139c68 0 123 54 123 120s-54 119 -123 119s-123 -53 -123 -119
c0 -67 55 -120 123 -120z" />
    <glyph glyph-name="currency" unicode="&#xa4;" horiz-adv-x="606" 
d="M178 592c38 29 78 44 125 44s89 -15 127 -44l100 101l35 -36l-100 -100c28 -37 42 -79 42 -125s-14 -88 -42 -125l100 -100l-35 -36l-100 101c-37 -29 -79 -43 -127 -43s-88 14 -125 43l-101 -101l-35 36l101 100c-28 37 -43 79 -43 125s15 88 43 125l-101 100l35 36z
M457 433c0 84 -68 153 -153 153s-153 -69 -153 -153c0 -85 68 -154 153 -154s153 70 153 154z" />
    <glyph glyph-name="quotesingle" unicode="'" horiz-adv-x="149" 
d="M103 700v-270h-57v270h57z" />
    <glyph glyph-name="quotedblleft" unicode="&#x201c;" horiz-adv-x="435" 
d="M217 709l-93 -266l-83 30l121 258zM394 709l-93 -266l-83 30l120 258z" />
    <glyph glyph-name="guillemotleft" unicode="&#xab;" horiz-adv-x="416" 
d="M156 24l-123 197l119 199l51 -33l-100 -166l101 -162zM334 24l-124 197l119 199l52 -33l-101 -166l102 -162z" />
    <glyph glyph-name="guilsinglleft" unicode="&#x2039;" horiz-adv-x="237" 
d="M156 24l-123 197l119 199l51 -33l-100 -166l101 -162z" />
    <glyph glyph-name="guilsinglright" unicode="&#x203a;" horiz-adv-x="237" 
d="M81 24l-48 35l101 162l-100 166l51 33l119 -199z" />
    <glyph glyph-name="fi" unicode="&#xfb01;" horiz-adv-x="525" 
d="M98 0v384h-86v63h86v129c0 134 22 190 129 190c23 0 45 -3 66 -10v-79c-20 11 -40 16 -60 16c-57 0 -59 -41 -59 -127v-119h119v-63h-117v-384h-78zM366 0v447h76v-447h-76zM348 662c0 31 25 56 56 56s56 -26 56 -57s-25 -55 -56 -55s-56 24 -56 56z" />
    <glyph glyph-name="fl" unicode="&#xfb02;" horiz-adv-x="525" 
d="M98 0v384h-86v63h86v129c0 134 22 190 129 190c23 0 45 -3 66 -10v-79c-20 11 -40 16 -60 16c-57 0 -59 -41 -59 -127v-119h119v-63h-117v-384h-78zM366 757h77v-757h-77v757z" />
    <glyph glyph-name="endash" unicode="&#x2013;" 
d="M0 251h500v-57h-500v57z" />
    <glyph glyph-name="dagger" unicode="&#x2020;" horiz-adv-x="525" 
d="M222 -218v589h-178v70h178v274h81v-274h178v-70h-178v-589h-81z" />
    <glyph glyph-name="daggerdbl" unicode="&#x2021;" horiz-adv-x="525" 
d="M221 -218v246h-177v73h177v334h-177v73h177v207h83v-207h177v-73h-177v-334h177v-73h-177v-246h-83z" />
    <glyph glyph-name="periodcentered" unicode="&#xb7;" horiz-adv-x="295" 
d="M89 352c0 32 26 58 58 58c33 0 59 -26 59 -58s-26 -58 -59 -58s-58 26 -58 58z" />
    <glyph glyph-name="paragraph" unicode="&#xb6;" 
d="M463 684h-61v-684h-46v684h-90v-684h-46v382c-114 5 -183 73 -183 170c0 100 74 170 192 170h234v-38z" />
    <glyph glyph-name="bullet" unicode="&#x2022;" horiz-adv-x="590" 
d="M150 372c0 80 65 144 145 144c79 0 144 -64 144 -144c0 -79 -65 -145 -145 -145s-144 65 -144 145z" />
    <glyph glyph-name="quotesinglbase" unicode="&#x201a;" horiz-adv-x="295" 
d="M59 -142l93 266l83 -29l-120 -259z" />
    <glyph glyph-name="quotedblbase" unicode="&#x201e;" horiz-adv-x="435" 
d="M42 -142l93 266l83 -29l-120 -259zM217 -142l92 266l84 -29l-121 -259z" />
    <glyph glyph-name="quotedblright" unicode="&#x201d;" horiz-adv-x="435" 
d="M42 466l93 265l83 -29l-120 -259zM217 466l92 265l84 -29l-121 -259z" />
    <glyph glyph-name="guillemotright" unicode="&#xbb;" horiz-adv-x="416" 
d="M259 24l-49 35l102 162l-101 166l52 33l119 -199zM81 24l-48 35l101 162l-100 166l51 33l119 -199z" />
    <glyph glyph-name="ellipsis" unicode="&#x2026;" horiz-adv-x="1000" 
d="M108 48c0 32 26 58 58 58c33 0 59 -26 59 -58s-26 -57 -59 -57s-58 25 -58 57zM441 48c0 32 26 58 58 58c33 0 59 -26 59 -58s-26 -57 -59 -57s-58 25 -58 57zM775 48c0 32 26 58 58 58c33 0 59 -26 59 -58s-26 -57 -59 -57s-58 25 -58 57z" />
    <glyph glyph-name="perthousand" unicode="&#x2030;" horiz-adv-x="1086" 
d="M133 -19l411 741h60l-410 -741h-61zM322 537c0 -118 -56 -184 -147 -184s-147 66 -147 184s56 185 147 185s147 -67 147 -185zM175 402c47 0 75 47 75 135c0 90 -26 136 -75 136c-47 0 -75 -48 -75 -136s28 -135 75 -135zM570 31c47 0 75 47 75 135c0 90 -26 135 -75 135
c-47 0 -75 -47 -75 -135s28 -135 75 -135zM716 166c0 -118 -55 -185 -146 -185s-147 67 -147 185s56 185 147 185s146 -67 146 -185zM1062 166c0 -118 -56 -185 -147 -185s-146 67 -146 185s55 185 146 185s147 -67 147 -185zM915 31c47 0 75 47 75 135
c0 90 -26 135 -75 135c-47 0 -74 -47 -74 -135s27 -135 74 -135z" />
    <glyph glyph-name="questiondown" unicode="&#xbf;" horiz-adv-x="521" 
d="M189 387h-76v15c0 101 56 156 151 156c91 0 144 -54 144 -142c0 -71 -44 -112 -120 -165c-67 -46 -113 -71 -113 -123c0 -44 33 -74 86 -74c58 0 91 37 91 104h79v-13c0 -99 -68 -164 -170 -164c-108 0 -171 61 -171 157c0 69 45 110 129 166c65 43 109 64 109 121
c0 36 -28 62 -66 62c-49 0 -73 -32 -73 -96v-4zM330 673c0 -32 -26 -58 -58 -58s-58 26 -58 58s25 58 58 58s58 -26 58 -58z" />
    <glyph glyph-name="grave" unicode="`" 
d="M320 517h-59l-139 170h98z" />
    <glyph glyph-name="acute" unicode="&#xb4;" 
d="M180 517l100 170h98l-139 -170h-59z" />
    <glyph glyph-name="circumflex" unicode="&#x2c6;" 
d="M106 517l96 170h96l96 -170h-60l-84 112l-85 -112h-59z" />
    <glyph glyph-name="tilde" unicode="&#x2dc;" 
d="M393 653c-13 -67 -47 -102 -96 -102c-10 0 -21 2 -32 5l-47 13c-10 3 -18 4 -24 4c-20 0 -35 -11 -44 -33h-43c12 65 46 100 94 100c10 0 20 -1 29 -4l48 -14c11 -3 19 -5 26 -5c22 0 37 12 46 36h43z" />
    <glyph glyph-name="macron" unicode="&#xaf;" 
d="M118 563v68h264v-68h-264z" />
    <glyph glyph-name="breve" unicode="&#x2d8;" 
d="M108 646h53c7 -42 34 -60 89 -60s83 18 89 60h53c-9 -87 -53 -125 -142 -125s-133 38 -142 125z" />
    <glyph glyph-name="dotaccent" unicode="&#x2d9;" 
d="M193 597c0 31 26 58 57 58s58 -27 58 -58c0 -33 -25 -58 -58 -58s-57 25 -57 58z" />
    <glyph glyph-name="dieresis" unicode="&#xa8;" 
d="M106 597c0 29 26 55 56 55s54 -25 54 -55c0 -32 -22 -55 -54 -55s-56 23 -56 55zM284 597c0 29 25 55 55 55s55 -25 55 -55c0 -32 -23 -55 -55 -55c-31 0 -55 23 -55 55z" />
    <glyph glyph-name="ring" unicode="&#x2da;" 
d="M127 631c0 69 54 124 123 124s124 -55 124 -124s-55 -123 -124 -123s-123 54 -123 123zM184 631c0 -37 29 -66 66 -66c36 0 66 29 66 66c0 36 -30 66 -66 66c-37 0 -66 -29 -66 -66z" />
    <glyph glyph-name="cedilla" unicode="&#xb8;" 
d="M125 -208v49c59 -14 99 -19 120 -19c39 0 59 13 59 40c0 29 -21 42 -65 42c-8 0 -16 0 -26 -1v97h37v-50h14c72 0 109 -31 109 -88c0 -59 -42 -92 -122 -92c-31 0 -74 7 -126 22z" />
    <glyph glyph-name="hungarumlaut" unicode="&#x2dd;" 
d="M152 517l67 170h87l-107 -170h-47zM278 517l81 170h86l-120 -170h-47z" />
    <glyph glyph-name="ogonek" unicode="&#x2db;" 
d="M288 0c-44 -39 -67 -73 -67 -108c0 -29 13 -38 47 -38h41v-70h-42c-73 0 -110 27 -110 82c0 46 31 86 91 134h40z" />
    <glyph glyph-name="caron" unicode="&#x2c7;" 
d="M106 687h59l85 -111l84 111h60l-96 -170h-96z" />
    <glyph glyph-name="emdash" unicode="&#x2014;" horiz-adv-x="1000" 
d="M0 194v57h1000v-57h-1000z" />
    <glyph glyph-name="AE" unicode="&#xc6;" horiz-adv-x="863" 
d="M198 292h228l-114 278zM-12 0l303 715h375l13 -76h-315l89 -210h311l14 -76h-292l116 -274h299l14 -79h-370l-93 219h-279l-93 -219h-92z" />
    <glyph glyph-name="ordfeminine" unicode="&#xaa;" horiz-adv-x="427" 
d="M371 716v-313h-56v57c-27 -46 -70 -70 -121 -70c-96 0 -161 66 -161 168c0 105 64 169 158 169c56 0 97 -24 123 -70v59h57zM315 556c0 73 -47 118 -112 118c-69 0 -109 -41 -109 -113c0 -75 40 -118 112 -118c67 0 109 41 109 113z" />
    <glyph glyph-name="Lslash" unicode="&#x141;" horiz-adv-x="461" 
d="M90 0v299l-83 -58l-43 59l126 88v327h86v-278l122 86l43 -60l-165 -116v-266h270v-81h-356z" />
    <glyph glyph-name="Oslash" unicode="&#xd8;" horiz-adv-x="870" 
d="M118 -24l-39 40l78 84c-67 66 -104 157 -104 257c0 101 39 194 112 265c72 71 167 110 270 110c89 0 169 -28 236 -81l78 83l39 -39l-75 -80c68 -66 104 -156 104 -258c0 -101 -39 -194 -112 -265c-72 -70 -167 -109 -270 -109c-84 0 -162 27 -236 80zM256 123
c52 -41 112 -61 179 -61c80 0 153 30 208 85c54 55 85 131 85 213c0 71 -24 133 -73 193zM615 591c-54 41 -116 62 -180 62c-79 0 -151 -30 -207 -86s-86 -130 -86 -210c0 -78 26 -146 73 -195z" />
    <glyph glyph-name="OE" unicode="&#x152;" horiz-adv-x="1153" 
d="M1100 715v-78h-292v-205h292v-79h-292v-274h292v-79h-373v126c-74 -96 -166 -143 -284 -143c-75 0 -145 18 -199 50c-123 72 -191 191 -191 325c0 101 40 193 113 265c73 71 169 109 278 109c117 0 208 -46 283 -142v125h373zM143 358c0 -78 30 -151 87 -208
c55 -55 127 -84 205 -84s151 29 207 85s85 128 85 207c0 78 -31 151 -86 206s-128 86 -206 86s-151 -30 -206 -85c-57 -57 -86 -128 -86 -207z" />
    <glyph glyph-name="ordmasculine" unicode="&#xba;" horiz-adv-x="427" 
d="M32 558c0 46 18 88 53 120c34 32 79 49 129 49c49 0 94 -17 129 -50c34 -31 53 -73 53 -119c0 -45 -19 -86 -53 -118c-35 -32 -80 -50 -129 -50c-50 0 -95 17 -129 49c-35 33 -53 74 -53 119zM92 558c0 -66 55 -118 122 -118s121 52 121 118c0 67 -54 119 -121 119
c-68 0 -122 -52 -122 -119z" />
    <glyph glyph-name="ae" unicode="&#xe6;" horiz-adv-x="812" 
d="M416 274h273c-5 79 -55 123 -136 123c-72 0 -131 -51 -137 -123zM374 80c-31 -64 -93 -98 -177 -98c-105 0 -171 64 -171 159c0 97 68 157 177 157c52 0 97 -15 134 -44c1 8 1 16 1 23c0 80 -49 123 -141 123c-40 0 -84 -12 -132 -37v71c51 19 102 29 152 29
c89 0 150 -39 166 -98c30 65 90 99 173 99c133 0 217 -88 217 -236v-16h-357c2 -101 67 -167 152 -167c62 0 111 33 144 97l58 -39c-45 -81 -115 -122 -207 -122c-86 0 -152 35 -189 99zM104 137c0 -57 39 -90 114 -90c76 0 124 36 124 93c0 59 -43 93 -119 93
c-78 0 -119 -34 -119 -96z" />
    <glyph glyph-name="dotlessi" unicode="&#x131;" horiz-adv-x="242" 
d="M82 0v447h77v-447h-77z" />
    <glyph glyph-name="lslash" unicode="&#x142;" horiz-adv-x="256" 
d="M89 0v290l-66 -47l-35 51l101 72v391h78v-341l66 47l35 -51l-101 -72v-340h-78z" />
    <glyph glyph-name="oslash" unicode="&#xf8;" horiz-adv-x="569" 
d="M150 128l231 229c-22 21 -56 34 -97 34c-90 0 -161 -71 -161 -172c0 -33 9 -64 27 -91zM416 321l-232 -231c23 -25 57 -38 100 -38c90 0 164 74 164 174c0 36 -11 67 -32 95zM37 16l57 56c-35 41 -52 88 -52 143c0 145 103 247 243 247c56 0 106 -17 149 -51l58 57
l36 -36l-57 -57c38 -38 57 -88 57 -149c0 -140 -108 -245 -245 -245c-62 0 -116 20 -154 55l-59 -59z" />
    <glyph glyph-name="oe" unicode="&#x153;" horiz-adv-x="917" 
d="M123 222c0 -95 73 -169 162 -169s161 74 161 169s-72 169 -161 169c-90 0 -162 -74 -162 -169zM481 80c-34 -59 -111 -99 -196 -99c-44 0 -86 12 -122 33c-78 46 -121 122 -121 208c0 135 106 241 249 241c78 0 142 -33 190 -98c36 63 101 99 182 99
c132 0 216 -89 216 -237v-15h-353v-7c0 -97 62 -160 148 -160c60 0 107 32 144 97l59 -39c-45 -81 -115 -122 -207 -122c-86 0 -153 36 -189 99zM797 274c-5 79 -55 123 -136 123c-73 0 -127 -47 -135 -123h271z" />
    <glyph glyph-name="germandbls" unicode="&#xdf;" horiz-adv-x="574" 
d="M83 0v386h-63v64h63v128c0 119 72 188 191 188c116 0 192 -75 192 -185c0 -81 -36 -133 -103 -152c104 -7 164 -83 164 -210c0 -141 -89 -235 -227 -235c-20 0 -42 4 -68 10v75c21 -10 42 -14 66 -14c92 0 144 59 144 164c0 110 -57 169 -169 169c-9 0 -18 -1 -28 -2v72
c8 -1 15 -1 22 -1c78 0 119 40 119 114c0 78 -39 120 -112 120c-46 0 -82 -18 -101 -52c-13 -21 -14 -51 -14 -91v-45v-503h-76z" />
    <glyph glyph-name="Aacute" unicode="&#xc1;" horiz-adv-x="625" 
d="M312 743l325 -743h-92l-93 219h-279l-93 -219h-92zM312 555l-114 -263h228zM243 786l100 170h98l-139 -170h-59z" />
    <glyph glyph-name="Acircumflex" unicode="&#xc2;" horiz-adv-x="625" 
d="M312 743l325 -743h-92l-93 219h-279l-93 -219h-92zM312 555l-114 -263h228zM169 786l96 170h96l96 -170h-60l-84 112l-85 -112h-59z" />
    <glyph glyph-name="Adieresis" unicode="&#xc4;" horiz-adv-x="625" 
d="M312 743l325 -743h-92l-93 219h-279l-93 -219h-92zM312 555l-114 -263h228zM169 866c0 29 26 55 56 55s54 -25 54 -55c0 -32 -22 -55 -54 -55s-56 23 -56 55zM347 866c0 29 25 55 55 55s55 -25 55 -55c0 -32 -23 -55 -55 -55c-31 0 -55 23 -55 55z" />
    <glyph glyph-name="Agrave" unicode="&#xc0;" horiz-adv-x="625" 
d="M312 743l325 -743h-92l-93 219h-279l-93 -219h-92zM312 555l-114 -263h228zM383 786h-59l-139 170h98z" />
    <glyph glyph-name="Aring" unicode="&#xc5;" horiz-adv-x="625" 
d="M312 555l-114 -263h228zM307 713h13l317 -713h-92l-93 219h-279l-93 -219h-92zM196 846c0 66 51 117 117 117s117 -51 117 -117s-51 -117 -117 -117s-117 51 -117 117zM253 846c0 -34 26 -61 60 -61s62 27 62 61c0 33 -28 61 -62 61c-33 0 -60 -27 -60 -61z" />
    <glyph glyph-name="Atilde" unicode="&#xc3;" horiz-adv-x="625" 
d="M312 743l325 -743h-92l-93 219h-279l-93 -219h-92zM312 555l-114 -263h228zM456 922c-13 -67 -47 -102 -96 -102c-10 0 -21 2 -32 5l-47 13c-10 3 -18 4 -24 4c-20 0 -35 -11 -44 -33h-43c12 65 46 100 94 100c10 0 20 -1 29 -4l48 -14c11 -3 19 -5 26 -5
c22 0 37 12 46 36h43z" />
    <glyph glyph-name="Ccedilla" unicode="&#xc7;" horiz-adv-x="725" 
d="M666 544c-69 75 -145 109 -238 109c-75 0 -151 -32 -204 -87c-55 -57 -82 -127 -82 -211c0 -66 16 -122 49 -169c57 -81 144 -127 241 -127c90 0 169 37 234 113v-113c-71 -51 -154 -78 -241 -78c-76 0 -149 23 -211 66c-104 72 -161 180 -161 307c0 111 37 200 112 273
c73 70 161 105 266 105c85 0 161 -26 235 -77v-111zM299 -208v49c59 -14 99 -19 120 -19c39 0 59 13 59 40c0 29 -21 42 -65 42c-8 0 -16 0 -26 -1v97h37v-50h14c72 0 109 -31 109 -88c0 -59 -42 -92 -122 -92c-31 0 -74 7 -126 22z" />
    <glyph glyph-name="Eacute" unicode="&#xc9;" horiz-adv-x="521" 
d="M86 0v715h377v-78h-292v-205h292v-79h-292v-274h292v-79h-377zM207 786l100 170h98l-139 -170h-59z" />
    <glyph glyph-name="Ecircumflex" unicode="&#xca;" horiz-adv-x="521" 
d="M86 0v715h377v-78h-292v-205h292v-79h-292v-274h292v-79h-377zM133 786l96 170h96l96 -170h-60l-84 112l-85 -112h-59z" />
    <glyph glyph-name="Edieresis" unicode="&#xcb;" horiz-adv-x="521" 
d="M86 0v715h377v-78h-292v-205h292v-79h-292v-274h292v-79h-377zM133 866c0 29 26 55 56 55s54 -25 54 -55c0 -32 -22 -55 -54 -55s-56 23 -56 55zM311 866c0 29 25 55 55 55s55 -25 55 -55c0 -32 -23 -55 -55 -55c-31 0 -55 23 -55 55z" />
    <glyph glyph-name="Egrave" unicode="&#xc8;" horiz-adv-x="521" 
d="M86 0v715h377v-78h-292v-205h292v-79h-292v-274h292v-79h-377zM347 786h-59l-139 170h98z" />
    <glyph glyph-name="Iacute" unicode="&#xcd;" horiz-adv-x="259" 
d="M87 0v715h85v-715h-85zM60 786l100 170h98l-139 -170h-59z" />
    <glyph glyph-name="Icircumflex" unicode="&#xce;" horiz-adv-x="259" 
d="M87 0v715h85v-715h-85zM-14 786l96 170h96l96 -170h-60l-84 112l-85 -112h-59z" />
    <glyph glyph-name="Idieresis" unicode="&#xcf;" horiz-adv-x="259" 
d="M87 0v715h85v-715h-85zM-14 866c0 29 26 55 56 55s54 -25 54 -55c0 -32 -22 -55 -54 -55s-56 23 -56 55zM164 866c0 29 25 55 55 55s55 -25 55 -55c0 -32 -23 -55 -55 -55c-31 0 -55 23 -55 55z" />
    <glyph glyph-name="Igrave" unicode="&#xcc;" horiz-adv-x="259" 
d="M87 0v715h85v-715h-85zM200 786h-59l-139 170h98z" />
    <glyph glyph-name="Ntilde" unicode="&#xd1;" horiz-adv-x="775" 
d="M86 0v743l523 -571v543h81v-743l-523 565v-537h-81zM531 922c-13 -67 -47 -102 -96 -102c-10 0 -21 2 -32 5l-47 13c-10 3 -18 4 -24 4c-20 0 -35 -11 -44 -33h-43c12 65 46 100 94 100c10 0 20 -1 29 -4l48 -14c11 -3 19 -5 26 -5c22 0 37 12 46 36h43z" />
    <glyph glyph-name="Oacute" unicode="&#xd3;" horiz-adv-x="870" 
d="M817 356c0 -102 -39 -195 -111 -265c-73 -71 -171 -110 -271 -110c-101 0 -198 40 -270 110c-73 71 -112 163 -112 265s39 195 112 266c72 70 169 109 270 109s199 -39 271 -109c73 -71 111 -164 111 -266zM435 61c78 0 150 30 207 87c56 56 86 128 86 208
s-30 154 -86 210s-128 86 -207 86s-152 -30 -207 -86c-56 -57 -86 -130 -86 -210s30 -151 86 -208c57 -57 128 -87 207 -87zM365 786l100 170h98l-139 -170h-59z" />
    <glyph glyph-name="Ocircumflex" unicode="&#xd4;" horiz-adv-x="870" 
d="M817 356c0 -102 -39 -195 -111 -265c-73 -71 -171 -110 -271 -110c-101 0 -198 40 -270 110c-73 71 -112 163 -112 265s39 195 112 266c72 70 169 109 270 109s199 -39 271 -109c73 -71 111 -164 111 -266zM435 61c78 0 150 30 207 87c56 56 86 128 86 208
s-30 154 -86 210s-128 86 -207 86s-152 -30 -207 -86c-56 -57 -86 -130 -86 -210s30 -151 86 -208c57 -57 128 -87 207 -87zM291 786l96 170h96l96 -170h-60l-84 112l-85 -112h-59z" />
    <glyph glyph-name="Odieresis" unicode="&#xd6;" horiz-adv-x="870" 
d="M817 356c0 -102 -39 -195 -111 -265c-73 -71 -171 -110 -271 -110c-101 0 -198 40 -270 110c-73 71 -112 163 -112 265s39 195 112 266c72 70 169 109 270 109s199 -39 271 -109c73 -71 111 -164 111 -266zM435 61c78 0 150 30 207 87c56 56 86 128 86 208
s-30 154 -86 210s-128 86 -207 86s-152 -30 -207 -86c-56 -57 -86 -130 -86 -210s30 -151 86 -208c57 -57 128 -87 207 -87zM291 866c0 29 26 55 56 55s54 -25 54 -55c0 -32 -22 -55 -54 -55s-56 23 -56 55zM469 866c0 29 25 55 55 55s55 -25 55 -55c0 -32 -23 -55 -55 -55
c-31 0 -55 23 -55 55z" />
    <glyph glyph-name="Ograve" unicode="&#xd2;" horiz-adv-x="870" 
d="M817 356c0 -102 -39 -195 -111 -265c-73 -71 -171 -110 -271 -110c-101 0 -198 40 -270 110c-73 71 -112 163 -112 265s39 195 112 266c72 70 169 109 270 109s199 -39 271 -109c73 -71 111 -164 111 -266zM435 61c78 0 150 30 207 87c56 56 86 128 86 208
s-30 154 -86 210s-128 86 -207 86s-152 -30 -207 -86c-56 -57 -86 -130 -86 -210s30 -151 86 -208c57 -57 128 -87 207 -87zM505 786h-59l-139 170h98z" />
    <glyph glyph-name="Otilde" unicode="&#xd5;" horiz-adv-x="870" 
d="M817 356c0 -102 -39 -195 -111 -265c-73 -71 -171 -110 -271 -110c-101 0 -198 40 -270 110c-73 71 -112 163 -112 265s39 195 112 266c72 70 169 109 270 109s199 -39 271 -109c73 -71 111 -164 111 -266zM435 61c78 0 150 30 207 87c56 56 86 128 86 208
s-30 154 -86 210s-128 86 -207 86s-152 -30 -207 -86c-56 -57 -86 -130 -86 -210s30 -151 86 -208c57 -57 128 -87 207 -87zM578 922c-13 -67 -47 -102 -96 -102c-10 0 -21 2 -32 5l-47 13c-10 3 -18 4 -24 4c-20 0 -35 -11 -44 -33h-43c12 65 46 100 94 100
c10 0 20 -1 29 -4l48 -14c11 -3 19 -5 26 -5c22 0 37 12 46 36h43z" />
    <glyph glyph-name="Scaron" unicode="&#x160;" horiz-adv-x="514" 
d="M346 397c94 -40 141 -106 141 -196c0 -131 -91 -219 -229 -219c-113 0 -192 60 -219 166l77 38c21 -87 70 -132 142 -132c86 0 143 55 143 133c0 64 -37 111 -111 143l-87 37c-95 40 -141 102 -141 189c0 100 82 176 201 176c86 0 150 -37 185 -108l-70 -45
c-31 54 -70 82 -121 82c-64 0 -109 -43 -109 -104c0 -51 31 -87 96 -115zM113 956h59l85 -111l84 111h60l-96 -170h-96z" />
    <glyph glyph-name="Uacute" unicode="&#xda;" horiz-adv-x="720" 
d="M83 715h86v-445c0 -143 58 -210 191 -210s191 67 191 210v445h86v-445c0 -193 -91 -289 -277 -289s-277 96 -277 289v445zM290 786l100 170h98l-139 -170h-59z" />
    <glyph glyph-name="Ucircumflex" unicode="&#xdb;" horiz-adv-x="720" 
d="M83 715h86v-445c0 -143 58 -210 191 -210s191 67 191 210v445h86v-445c0 -193 -91 -289 -277 -289s-277 96 -277 289v445zM216 786l96 170h96l96 -170h-60l-84 112l-85 -112h-59z" />
    <glyph glyph-name="Udieresis" unicode="&#xdc;" horiz-adv-x="720" 
d="M83 715h86v-445c0 -143 58 -210 191 -210s191 67 191 210v445h86v-445c0 -193 -91 -289 -277 -289s-277 96 -277 289v445zM216 866c0 29 26 55 56 55s54 -25 54 -55c0 -32 -22 -55 -54 -55s-56 23 -56 55zM394 866c0 29 25 55 55 55s55 -25 55 -55c0 -32 -23 -55 -55 -55
c-31 0 -55 23 -55 55z" />
    <glyph glyph-name="Ugrave" unicode="&#xd9;" horiz-adv-x="720" 
d="M83 715h86v-445c0 -143 58 -210 191 -210s191 67 191 210v445h86v-445c0 -193 -91 -289 -277 -289s-277 96 -277 289v445zM430 786h-59l-139 170h98z" />
    <glyph glyph-name="Ydieresis" unicode="&#x178;" horiz-adv-x="572" 
d="M243 0v327l-242 388h98l187 -310l186 310h98l-242 -388v-327h-85zM142 866c0 29 26 55 56 55s54 -25 54 -55c0 -32 -22 -55 -54 -55s-56 23 -56 55zM320 866c0 29 25 55 55 55s55 -25 55 -55c0 -32 -23 -55 -55 -55c-31 0 -55 23 -55 55z" />
    <glyph glyph-name="Zcaron" unicode="&#x17d;" horiz-adv-x="566" 
d="M-5 0l402 637h-326v78h470l-398 -634h382v-81h-530zM139 956h59l85 -111l84 111h60l-96 -170h-96z" />
    <glyph glyph-name="aacute" unicode="&#xe1;" horiz-adv-x="569" 
d="M494 447v-447h-74v81c-36 -65 -93 -100 -162 -100c-128 0 -214 95 -214 241c0 150 85 241 210 241c75 0 130 -34 164 -100v84h76zM420 219c0 104 -63 168 -149 168c-92 0 -146 -59 -146 -161c0 -108 54 -169 149 -169c90 0 146 59 146 162zM215 517l100 170h98l-139 -170
h-59z" />
    <glyph glyph-name="acircumflex" unicode="&#xe2;" horiz-adv-x="569" 
d="M494 447v-447h-74v81c-36 -65 -93 -100 -162 -100c-128 0 -214 95 -214 241c0 150 85 241 210 241c75 0 130 -34 164 -100v84h76zM420 219c0 104 -63 168 -149 168c-92 0 -146 -59 -146 -161c0 -108 54 -169 149 -169c90 0 146 59 146 162zM141 517l96 170h96l96 -170
h-60l-84 112l-85 -112h-59z" />
    <glyph glyph-name="adieresis" unicode="&#xe4;" horiz-adv-x="569" 
d="M494 447v-447h-74v81c-36 -65 -93 -100 -162 -100c-128 0 -214 95 -214 241c0 150 85 241 210 241c75 0 130 -34 164 -100v84h76zM420 219c0 104 -63 168 -149 168c-92 0 -146 -59 -146 -161c0 -108 54 -169 149 -169c90 0 146 59 146 162zM141 597c0 29 26 55 56 55
s54 -25 54 -55c0 -32 -22 -55 -54 -55s-56 23 -56 55zM319 597c0 29 25 55 55 55s55 -25 55 -55c0 -32 -23 -55 -55 -55c-31 0 -55 23 -55 55z" />
    <glyph glyph-name="agrave" unicode="&#xe0;" horiz-adv-x="569" 
d="M494 447v-447h-74v81c-36 -65 -93 -100 -162 -100c-128 0 -214 95 -214 241c0 150 85 241 210 241c75 0 130 -34 164 -100v84h76zM420 219c0 104 -63 168 -149 168c-92 0 -146 -59 -146 -161c0 -108 54 -169 149 -169c90 0 146 59 146 162zM355 517h-59l-139 170h98z" />
    <glyph glyph-name="aring" unicode="&#xe5;" horiz-adv-x="569" 
d="M153 612c0 66 51 117 117 117s117 -51 117 -117s-51 -117 -117 -117s-117 51 -117 117zM210 613c0 -34 26 -61 60 -61s62 27 62 61c0 33 -28 61 -62 61c-33 0 -60 -27 -60 -61zM420 219c0 104 -63 168 -149 168c-92 0 -146 -59 -146 -161c0 -108 54 -169 149 -169
c90 0 146 59 146 162zM494 447v-447h-74v81c-36 -65 -93 -100 -162 -100c-128 0 -214 95 -214 241c0 150 85 241 210 241c75 0 130 -34 164 -100v84h76z" />
    <glyph glyph-name="atilde" unicode="&#xe3;" horiz-adv-x="569" 
d="M494 447v-447h-74v81c-36 -65 -93 -100 -162 -100c-128 0 -214 95 -214 241c0 150 85 241 210 241c75 0 130 -34 164 -100v84h76zM420 219c0 104 -63 168 -149 168c-92 0 -146 -59 -146 -161c0 -108 54 -169 149 -169c90 0 146 59 146 162zM428 653
c-13 -67 -47 -102 -96 -102c-10 0 -21 2 -32 5l-47 13c-10 3 -18 4 -24 4c-20 0 -35 -11 -44 -33h-43c12 65 46 100 94 100c10 0 20 -1 29 -4l48 -14c11 -3 19 -5 26 -5c22 0 37 12 46 36h43z" />
    <glyph glyph-name="ccedilla" unicode="&#xe7;" horiz-adv-x="449" 
d="M421 106v-89c-41 -24 -92 -36 -150 -36c-139 0 -230 97 -230 238c0 146 99 244 233 244c50 0 98 -11 139 -31v-82c-38 25 -80 39 -124 39c-98 0 -166 -66 -166 -172c0 -90 67 -162 160 -162c48 0 91 17 138 51zM135 -208v49c59 -14 99 -19 120 -19c39 0 59 13 59 40
c0 29 -21 42 -65 42c-8 0 -16 0 -26 -1v97h37v-50h14c72 0 109 -31 109 -88c0 -59 -42 -92 -122 -92c-31 0 -74 7 -126 22z" />
    <glyph glyph-name="eacute" unicode="&#xe9;" horiz-adv-x="514" 
d="M477 212h-354v-7c0 -97 62 -160 148 -160c60 0 108 32 145 97l58 -39c-45 -81 -115 -122 -207 -122c-136 0 -228 98 -228 244c0 141 93 239 223 239c131 0 215 -89 215 -237v-15zM395 274c-5 79 -55 123 -136 123c-73 0 -128 -47 -136 -123h272zM187 517l100 170h98
l-139 -170h-59z" />
    <glyph glyph-name="ecircumflex" unicode="&#xea;" horiz-adv-x="514" 
d="M477 212h-354v-7c0 -97 62 -160 148 -160c60 0 108 32 145 97l58 -39c-45 -81 -115 -122 -207 -122c-136 0 -228 98 -228 244c0 141 93 239 223 239c131 0 215 -89 215 -237v-15zM395 274c-5 79 -55 123 -136 123c-73 0 -128 -47 -136 -123h272zM113 517l96 170h96
l96 -170h-60l-84 112l-85 -112h-59z" />
    <glyph glyph-name="edieresis" unicode="&#xeb;" horiz-adv-x="514" 
d="M477 212h-354v-7c0 -97 62 -160 148 -160c60 0 108 32 145 97l58 -39c-45 -81 -115 -122 -207 -122c-136 0 -228 98 -228 244c0 141 93 239 223 239c131 0 215 -89 215 -237v-15zM395 274c-5 79 -55 123 -136 123c-73 0 -128 -47 -136 -123h272zM113 597
c0 29 26 55 56 55s54 -25 54 -55c0 -32 -22 -55 -54 -55s-56 23 -56 55zM291 597c0 29 25 55 55 55s55 -25 55 -55c0 -32 -23 -55 -55 -55c-31 0 -55 23 -55 55z" />
    <glyph glyph-name="egrave" unicode="&#xe8;" horiz-adv-x="514" 
d="M477 212h-354v-7c0 -97 62 -160 148 -160c60 0 108 32 145 97l58 -39c-45 -81 -115 -122 -207 -122c-136 0 -228 98 -228 244c0 141 93 239 223 239c131 0 215 -89 215 -237v-15zM395 274c-5 79 -55 123 -136 123c-73 0 -128 -47 -136 -123h272zM327 517h-59l-139 170h98
z" />
    <glyph glyph-name="iacute" unicode="&#xed;" horiz-adv-x="242" 
d="M82 0v447h77v-447h-77zM51 517l100 170h98l-139 -170h-59z" />
    <glyph glyph-name="icircumflex" unicode="&#xee;" horiz-adv-x="242" 
d="M82 0v447h77v-447h-77zM-23 517l96 170h96l96 -170h-60l-84 112l-85 -112h-59z" />
    <glyph glyph-name="idieresis" unicode="&#xef;" horiz-adv-x="242" 
d="M82 0v447h77v-447h-77zM-23 597c0 29 26 55 56 55s54 -25 54 -55c0 -32 -22 -55 -54 -55s-56 23 -56 55zM155 597c0 29 25 55 55 55s55 -25 55 -55c0 -32 -23 -55 -55 -55c-31 0 -55 23 -55 55z" />
    <glyph glyph-name="igrave" unicode="&#xec;" horiz-adv-x="242" 
d="M82 0v447h77v-447h-77zM191 517h-59l-139 170h98z" />
    <glyph glyph-name="ntilde" unicode="&#xf1;" horiz-adv-x="557" 
d="M78 0v447h75v-69c39 58 93 85 163 85c104 0 168 -58 168 -159v-304h-78v263c0 90 -37 134 -117 134c-45 0 -84 -17 -109 -48c-26 -32 -26 -69 -26 -118v-231h-76zM425 653c-13 -67 -47 -102 -96 -102c-10 0 -21 2 -32 5l-47 13c-10 3 -18 4 -24 4c-20 0 -35 -11 -44 -33
h-43c12 65 46 100 94 100c10 0 20 -1 29 -4l48 -14c11 -3 19 -5 26 -5c22 0 37 12 46 36h43z" />
    <glyph glyph-name="oacute" unicode="&#xf3;" horiz-adv-x="569" 
d="M42 222c0 65 24 125 71 171c46 46 106 70 172 70s125 -25 172 -71c46 -45 71 -105 71 -170s-25 -124 -71 -169c-47 -46 -107 -72 -172 -72c-66 0 -126 25 -172 71c-47 47 -71 105 -71 170zM123 222c0 -95 73 -169 162 -169s161 74 161 169s-72 169 -161 169
c-90 0 -162 -74 -162 -169zM215 517l100 170h98l-139 -170h-59z" />
    <glyph glyph-name="ocircumflex" unicode="&#xf4;" horiz-adv-x="569" 
d="M42 222c0 65 24 125 71 171c46 46 106 70 172 70s125 -25 172 -71c46 -45 71 -105 71 -170s-25 -124 -71 -169c-47 -46 -107 -72 -172 -72c-66 0 -126 25 -172 71c-47 47 -71 105 -71 170zM123 222c0 -95 73 -169 162 -169s161 74 161 169s-72 169 -161 169
c-90 0 -162 -74 -162 -169zM141 517l96 170h96l96 -170h-60l-84 112l-85 -112h-59z" />
    <glyph glyph-name="odieresis" unicode="&#xf6;" horiz-adv-x="569" 
d="M42 222c0 65 24 125 71 171c46 46 106 70 172 70s125 -25 172 -71c46 -45 71 -105 71 -170s-25 -124 -71 -169c-47 -46 -107 -72 -172 -72c-66 0 -126 25 -172 71c-47 47 -71 105 -71 170zM123 222c0 -95 73 -169 162 -169s161 74 161 169s-72 169 -161 169
c-90 0 -162 -74 -162 -169zM141 597c0 29 26 55 56 55s54 -25 54 -55c0 -32 -22 -55 -54 -55s-56 23 -56 55zM319 597c0 29 25 55 55 55s55 -25 55 -55c0 -32 -23 -55 -55 -55c-31 0 -55 23 -55 55z" />
    <glyph glyph-name="ograve" unicode="&#xf2;" horiz-adv-x="569" 
d="M42 222c0 65 24 125 71 171c46 46 106 70 172 70s125 -25 172 -71c46 -45 71 -105 71 -170s-25 -124 -71 -169c-47 -46 -107 -72 -172 -72c-66 0 -126 25 -172 71c-47 47 -71 105 -71 170zM123 222c0 -95 73 -169 162 -169s161 74 161 169s-72 169 -161 169
c-90 0 -162 -74 -162 -169zM355 517h-59l-139 170h98z" />
    <glyph glyph-name="otilde" unicode="&#xf5;" horiz-adv-x="569" 
d="M42 222c0 65 24 125 71 171c46 46 106 70 172 70s125 -25 172 -71c46 -45 71 -105 71 -170s-25 -124 -71 -169c-47 -46 -107 -72 -172 -72c-66 0 -126 25 -172 71c-47 47 -71 105 -71 170zM123 222c0 -95 73 -169 162 -169s161 74 161 169s-72 169 -161 169
c-90 0 -162 -74 -162 -169zM428 653c-13 -67 -47 -102 -96 -102c-10 0 -21 2 -32 5l-47 13c-10 3 -18 4 -24 4c-20 0 -35 -11 -44 -33h-43c12 65 46 100 94 100c10 0 20 -1 29 -4l48 -14c11 -3 19 -5 26 -5c22 0 37 12 46 36h43z" />
    <glyph glyph-name="scaron" unicode="&#x161;" horiz-adv-x="407" 
d="M31 75l65 44c25 -48 63 -71 114 -71s84 28 84 67c0 34 -23 52 -70 68c-110 38 -176 57 -176 145c0 78 63 135 158 135c77 0 135 -32 159 -89l-62 -38c-18 41 -55 64 -102 64c-45 0 -76 -28 -76 -67c0 -47 41 -53 115 -77c87 -28 130 -60 130 -133
c0 -83 -64 -142 -163 -142c-83 0 -141 31 -176 94zM60 687h59l85 -111l84 111h60l-96 -170h-96z" />
    <glyph glyph-name="uacute" unicode="&#xfa;" horiz-adv-x="547" 
d="M150 447v-220c0 -118 27 -173 125 -173s124 55 124 173v220h78v-261c0 -135 -70 -205 -204 -205c-132 0 -203 70 -203 205v261h80zM204 517l100 170h98l-139 -170h-59z" />
    <glyph glyph-name="ucircumflex" unicode="&#xfb;" horiz-adv-x="547" 
d="M150 447v-220c0 -118 27 -173 125 -173s124 55 124 173v220h78v-261c0 -135 -70 -205 -204 -205c-132 0 -203 70 -203 205v261h80zM130 517l96 170h96l96 -170h-60l-84 112l-85 -112h-59z" />
    <glyph glyph-name="udieresis" unicode="&#xfc;" horiz-adv-x="547" 
d="M150 447v-220c0 -118 27 -173 125 -173s124 55 124 173v220h78v-261c0 -135 -70 -205 -204 -205c-132 0 -203 70 -203 205v261h80zM130 597c0 29 26 55 56 55s54 -25 54 -55c0 -32 -22 -55 -54 -55s-56 23 -56 55zM308 597c0 29 25 55 55 55s55 -25 55 -55
c0 -32 -23 -55 -55 -55c-31 0 -55 23 -55 55z" />
    <glyph glyph-name="ugrave" unicode="&#xf9;" horiz-adv-x="547" 
d="M150 447v-220c0 -118 27 -173 125 -173s124 55 124 173v220h78v-261c0 -135 -70 -205 -204 -205c-132 0 -203 70 -203 205v261h80zM344 517h-59l-139 170h98z" />
    <glyph glyph-name="ydieresis" unicode="&#xff;" horiz-adv-x="440" 
d="M60 -218l121 262l-175 403h88l130 -321l138 321h84l-300 -665h-86zM76 597c0 29 26 55 56 55s54 -25 54 -55c0 -32 -22 -55 -54 -55s-56 23 -56 55zM254 597c0 29 25 55 55 55s55 -25 55 -55c0 -32 -23 -55 -55 -55c-31 0 -55 23 -55 55z" />
    <glyph glyph-name="zcaron" unicode="&#x17e;" horiz-adv-x="431" 
d="M15 0l256 380h-240v67h375l-256 -380h254v-67h-389zM72 687h59l85 -111l84 111h60l-96 -170h-96z" />
    <glyph glyph-name="trademark" unicode="&#x2122;" horiz-adv-x="833" 
d="M339 711v-33h-84v-228h-46v228h-85v33h215zM463 711l78 -198l73 198h64v-261h-40v224l-84 -224h-26l-88 224v-224h-40v261h63z" />
    <glyph glyph-name="copyright" unicode="&#xa9;" horiz-adv-x="833" 
d="M416 713c97 0 187 -36 256 -105c67 -67 103 -157 103 -254c0 -98 -36 -186 -103 -252c-71 -69 -162 -107 -256 -107c-95 0 -183 37 -252 106s-106 158 -106 253s38 185 107 255c66 67 154 104 251 104zM733 354c0 85 -33 165 -92 224c-60 60 -139 92 -225 92
s-163 -32 -221 -91c-61 -62 -94 -142 -94 -225s33 -161 93 -222c60 -60 138 -93 222 -93c83 0 164 33 226 94c59 58 91 135 91 221zM520 445c-10 51 -49 80 -102 80c-75 0 -121 -61 -121 -172c0 -107 48 -168 121 -168c56 0 97 33 107 89h63c-7 -83 -77 -140 -173 -140
c-113 0 -188 83 -188 218c0 138 78 223 193 223c90 0 156 -54 163 -130h-63z" />
    <glyph glyph-name="logicalnot" unicode="&#xac;" horiz-adv-x="833" 
d="M709 419v-245h-56v188h-529v57h585z" />
    <glyph glyph-name="registered" unicode="&#xae;" horiz-adv-x="833" 
d="M416 713c98 0 187 -37 256 -106c67 -67 103 -157 103 -253c0 -98 -36 -186 -104 -252c-71 -69 -161 -107 -255 -107c-95 0 -184 38 -253 107c-68 68 -105 157 -105 252s38 186 108 256c66 67 153 103 250 103zM733 352c0 86 -32 166 -91 225c-61 61 -139 93 -226 93
c-85 0 -162 -31 -220 -90c-62 -62 -95 -142 -95 -226c0 -83 33 -161 93 -222s139 -93 221 -93c85 0 164 32 226 93c59 58 92 135 92 220zM426 565c114 0 171 -36 171 -113c0 -57 -36 -99 -96 -109l92 -188h-77l-86 178h-87v-178h-69v410h152zM413 520h-70v-142h72
c76 0 111 17 111 69c0 53 -36 73 -113 73z" />
    <glyph glyph-name="minus" unicode="&#x2212;" horiz-adv-x="833" 
d="M709 327v-58h-585v58h585z" />
    <glyph glyph-name="Eth" unicode="&#xd0;" horiz-adv-x="729" 
d="M176 80h55c122 0 207 1 267 51c58 48 89 126 89 227s-30 177 -89 226c-59 50 -144 52 -267 52h-55v-200h194v-74h-194v-282zM90 0v362h-90v74h90v279h137c134 0 237 0 324 -67c82 -63 126 -163 126 -291s-44 -227 -126 -290c-83 -64 -177 -67 -293 -67h-31h-137z" />
    <glyph glyph-name="Thorn" unicode="&#xde;" 
d="M169 174v-174h-83v715h83v-146h43h13c79 0 140 -1 191 -37c45 -32 73 -91 73 -161s-28 -129 -73 -161c-48 -34 -106 -36 -180 -36h-24h-43zM169 252h43c123 0 185 14 185 114c0 104 -61 125 -185 125h-43v-239z" />
    <glyph glyph-name="Yacute" unicode="&#xdd;" horiz-adv-x="572" 
d="M243 0v327l-242 388h98l187 -310l186 310h98l-242 -388v-327h-85zM216 786l100 170h98l-139 -170h-59z" />
    <glyph glyph-name="brokenbar" unicode="&#xa6;" 
d="M281 699v-370h-62v370h62zM281 199v-370h-62v370h62z" />
    <glyph glyph-name="degree" unicode="&#xb0;" horiz-adv-x="329" 
d="M165 710c76 0 138 -62 138 -138c0 -75 -61 -138 -139 -138c-77 0 -137 61 -137 138c0 78 62 138 138 138zM263 572c0 54 -43 98 -98 98c-54 0 -99 -43 -99 -98c0 -56 45 -99 99 -99c56 0 98 45 98 99z" />
    <glyph glyph-name="divide" unicode="&#xf7;" horiz-adv-x="833" 
d="M417 530c31 0 56 -25 56 -56c0 -30 -24 -56 -56 -56s-56 25 -56 56s26 56 56 56zM709 327v-57h-585v57h585zM417 178c30 0 56 -25 56 -56c0 -30 -24 -56 -56 -56c-31 0 -56 25 -56 56c0 32 26 56 56 56z" />
    <glyph glyph-name="eth" unicode="&#xf0;" horiz-adv-x="569" 
d="M444 360c-23 77 -73 152 -149 223l-160 -73l-28 51l136 63c-35 28 -74 55 -116 78l38 54c52 -30 101 -63 148 -101l168 78l29 -51l-149 -70c111 -113 167 -230 167 -361c0 -170 -97 -270 -243 -270c-65 0 -126 24 -173 67c-45 42 -70 99 -70 159c0 61 25 117 70 159
c47 43 106 67 164 67c66 0 121 -24 168 -73zM123 208c0 -85 71 -154 162 -154c90 0 161 69 161 154c0 86 -71 155 -161 155s-162 -69 -162 -155z" />
    <glyph glyph-name="mu" unicode="&#xb5;" horiz-adv-x="551" 
d="M177 522l-62 -291c-5 -22 -7 -44 -7 -67c0 -70 38 -111 106 -111c82 0 135 66 164 200l59 269h76l-79 -368c-7 -31 -11 -53 -11 -66c0 -21 12 -32 35 -32c2 0 8 0 17 1l-13 -61c-17 -4 -33 -5 -45 -5c-46 0 -67 22 -71 72c-26 -45 -78 -72 -141 -72c-56 0 -99 22 -128 67
l-55 -266h-76l154 730h77z" />
    <glyph glyph-name="multiply" unicode="&#xd7;" horiz-adv-x="833" 
d="M419 338l232 233l40 -40l-232 -233l232 -232l-40 -40l-232 232l-233 -232l-39 40l232 232l-232 233l39 40z" />
    <glyph glyph-name="onehalf" unicode="&#xbd;" horiz-adv-x="911" 
d="M172 309v355h-92l30 41h114v-396h-52zM205 -19l439 741h61l-439 -741h-61zM846 45v-45h-272l95 100c81 86 138 139 138 191c0 40 -35 70 -89 70c-57 0 -88 -29 -88 -83v-4h-51v10c0 76 52 120 141 120c88 0 140 -42 140 -111c0 -57 -42 -110 -114 -180l-71 -68h171z" />
    <glyph glyph-name="onequarter" unicode="&#xbc;" horiz-adv-x="911" 
d="M172 309v355h-92l30 41h114v-396h-52zM205 -19l439 741h61l-439 -741h-61zM764 125v176l-132 -176h132zM764 0v86h-211l241 318h23v-279h53v-39h-53v-86h-53z" />
    <glyph glyph-name="onesuperior" unicode="&#xb9;" horiz-adv-x="390" 
d="M180 281v380h-96l31 45h120v-425h-55z" />
    <glyph glyph-name="plusminus" unicode="&#xb1;" horiz-adv-x="833" 
d="M446 576v-168h263v-57h-263v-168h-58v168h-264v57h264v168h58zM709 77v-57h-585v57h585z" />
    <glyph glyph-name="thorn" unicode="&#xfe;" horiz-adv-x="574" 
d="M154 81v-299h-76v975h76v-394c25 63 85 100 160 100c128 0 214 -95 214 -241c0 -150 -85 -241 -211 -241c-74 0 -129 34 -163 100zM152 228c0 -107 60 -172 151 -172c89 0 144 58 144 157c0 112 -56 176 -145 176c-90 0 -150 -61 -150 -161z" />
    <glyph glyph-name="threequarters" unicode="&#xbe;" horiz-adv-x="910" 
d="M35 410h54v-4c0 -41 33 -67 84 -67c60 0 93 29 93 78c0 51 -33 78 -98 78c-5 0 -10 0 -16 -1v40c5 0 10 -1 15 -1c62 0 94 25 94 72c0 41 -30 68 -80 68c-52 0 -83 -24 -85 -67h-53c4 69 52 107 139 107c84 0 135 -41 135 -106c0 -48 -30 -82 -80 -94
c53 -7 86 -44 86 -98c0 -72 -56 -117 -152 -117c-83 0 -136 42 -136 105v7zM205 -19l439 741h61l-439 -741h-61zM764 125v176l-132 -176h132zM764 0v86h-211l241 318h23v-279h53v-39h-53v-86h-53z" />
    <glyph glyph-name="threesuperior" unicode="&#xb3;" horiz-adv-x="389" 
d="M36 390h58v-5c0 -44 33 -72 88 -72c62 0 97 31 97 83c0 55 -35 84 -103 84h-16v42c5 0 10 -1 15 -1c65 0 98 26 98 77c0 44 -31 73 -84 73c-54 0 -86 -25 -89 -71h-55c4 73 55 114 146 114c88 0 141 -44 141 -114c0 -51 -31 -87 -84 -100c56 -8 90 -47 90 -106
c0 -76 -58 -124 -158 -124c-88 0 -144 44 -144 112v8z" />
    <glyph glyph-name="twosuperior" unicode="&#xb2;" horiz-adv-x="389" 
d="M321 330v-49h-284l100 107c84 92 144 149 144 204c0 44 -37 75 -94 75c-59 0 -92 -31 -92 -88v-5h-53v12c0 81 54 128 147 128s147 -45 147 -119c0 -61 -44 -118 -120 -193l-73 -72h178z" />
    <glyph glyph-name="yacute" unicode="&#xfd;" horiz-adv-x="440" 
d="M60 -218l121 262l-175 403h88l130 -321l138 321h84l-300 -665h-86zM150 517l100 170h98l-139 -170h-59z" />
    </font>
</defs>
</svg>
